# Blender 3.6.2
# www.blender.org
mtllib 5velas.mtl
o Candle.01_Cube.001
v 1.501369 2.218281 -0.032304
v 1.427935 2.218223 -0.051227
v 1.403779 2.217962 -0.149437
v 1.478283 2.217614 -0.205322
v 1.417142 2.384157 -0.192726
v 1.551708 2.218221 -0.186467
v 1.562763 2.606798 -0.196649
v 1.538365 4.081408 -0.149816
v 1.547279 4.072855 -0.103593
v 1.476292 2.564138 -0.220487
v 1.416873 2.606719 -0.041046
v 1.389715 2.597404 -0.149361
v 1.503356 2.564089 -0.017210
v 1.514989 4.138005 -0.134966
v 1.461457 4.113875 -0.164388
v 1.444282 4.113875 -0.090483
v 1.518183 4.113873 -0.073308
v 1.474566 4.072839 -0.061389
v 1.432363 4.072871 -0.134103
v 1.505078 4.072831 -0.176307
v 1.575860 2.217960 -0.088258
v 1.589401 2.398890 -0.070451
v 2.301144 2.402285 0.545430
v 2.239928 2.217578 0.424655
v 2.285827 2.217961 0.521100
v 2.348497 2.217587 0.350558
v 2.258579 2.384164 0.368014
v 2.417749 2.217770 0.430349
v 2.390295 2.402280 0.351659
v 2.432900 2.564132 0.428364
v 2.388716 4.072863 0.457149
v 2.317729 2.564138 0.340252
v 2.245268 2.564260 0.497741
v 2.231157 2.597442 0.411380
v 2.322779 4.139670 0.417697
v 2.286174 4.113252 0.471238
v 2.359625 4.113873 0.487429
v 2.376798 4.113874 0.413527
v 2.316000 4.072849 0.499349
v 2.275830 4.092297 0.425415
v 2.300297 4.081377 0.393338
v 2.346514 4.072861 0.384434
v 2.398842 2.217802 0.503749
v 2.409055 2.606874 0.514836
v 3.198828 2.217587 -0.127513
v 3.095722 2.217960 -0.099616
v 3.034981 2.217574 -0.202897
v 3.067279 2.402264 -0.095421
v 3.114781 2.217714 -0.272138
v 3.036069 2.402183 -0.244685
v 3.188200 2.218221 -0.253275
v 3.212300 2.564284 -0.241502
v 3.183769 4.072865 -0.170398
v 3.137939 2.606623 -0.291670
v 3.024669 2.564074 -0.172123
v 3.139834 2.564184 -0.084019
v 3.142433 4.138005 -0.160485
v 3.097945 4.113875 -0.231196
v 3.080774 4.113879 -0.157291
v 3.171850 4.113874 -0.214020
v 3.157278 4.081399 -0.137109
v 3.111053 4.072854 -0.128198
v 3.068852 4.072831 -0.200918
v 3.141568 4.072873 -0.243114
v 3.227853 2.398835 -0.141520
v 2.757776 2.217570 -1.044369
v 2.683676 2.217625 -1.152944
v 2.715981 2.402227 -1.045460
v 2.763473 2.217701 -1.222182
v 2.684772 2.402235 -1.194728
v 2.836899 2.218221 -1.203319
v 2.876647 2.564310 -1.149228
v 2.831175 2.597517 -1.223998
v 2.832471 4.072852 -1.120438
v 2.761480 2.564115 -1.237339
v 2.673370 2.564106 -1.122167
v 2.788545 2.564194 -1.034060
v 2.755531 4.138233 -1.116060
v 2.803374 4.113879 -1.090159
v 2.820549 4.113874 -1.164066
v 2.759748 4.072836 -1.078241
v 2.726462 4.081388 -1.104736
v 2.719583 4.092297 -1.152175
v 2.745609 4.115076 -1.181037
v 2.790271 4.072866 -1.193155
v 2.861051 2.217961 -1.105110
v 2.865246 2.402249 -1.076668
v 1.749690 2.217625 -1.001858
v 1.839609 2.384162 -1.019319
v 1.680447 2.217701 -1.081654
v 1.707893 2.402280 -1.002964
v 1.797043 2.402286 -1.196735
v 1.699346 2.217802 -1.155054
v 1.812361 2.217960 -1.172404
v 1.852920 2.564003 -1.149055
v 1.822359 4.092297 -1.076720
v 1.689133 2.606877 -1.166141
v 1.665288 2.564133 -1.079668
v 1.780460 2.564137 -0.991557
v 1.775410 4.139670 -1.069002
v 1.738564 4.113873 -1.138734
v 1.721391 4.113874 -1.064831
v 1.812015 4.113252 -1.122542
v 1.797892 4.081376 -1.044643
v 1.751675 4.072861 -1.035739
v 1.709473 4.072863 -1.108454
v 1.782189 4.072849 -1.150654
v 1.858259 2.217575 -1.075959
v 1.867036 2.597238 -1.062686
vn 0.9157 -0.0438 0.3995
vn 0.1545 -0.0008 0.9880
vn 0.1223 -0.6477 0.7520
vn 0.7329 -0.6384 0.2350
vn -0.6683 -0.0459 -0.7425
vn -0.1135 0.0023 -0.9935
vn -0.1116 -0.6583 -0.7444
vn -0.7354 -0.6385 -0.2267
vn 0.8278 0.2527 -0.5008
vn 0.3737 0.8973 -0.2349
vn 0.9536 0.1779 0.2428
vn -0.9773 0.0108 -0.2114
vn -0.4366 0.5824 -0.6857
vn -0.5610 -0.6201 0.5484
vn -0.7138 -0.0005 0.7003
vn -0.6753 0.6088 0.4164
vn 0.4193 0.5843 0.6948
vn 0.7027 0.0103 0.7114
vn -0.2175 -0.0416 0.9752
vn 0.5348 -0.6290 0.5642
vn -0.3749 -0.6387 0.6719
vn -0.8570 0.0086 0.5152
vn -0.7501 -0.6404 -0.1652
vn -0.6588 -0.0622 -0.7497
vn -0.1482 0.0183 -0.9888
vn 0.1073 -0.6501 -0.7522
vn 0.5872 -0.0383 -0.8085
vn 0.9909 0.0001 -0.1345
vn 0.7466 -0.6509 -0.1377
vn -0.9694 0.0189 -0.2447
vn -0.4778 0.2428 -0.8442
vn -0.6742 0.5745 0.4642
vn -0.1305 0.9246 -0.3579
vn 0.4166 0.6005 0.6825
vn 0.7092 0.5645 -0.4223
vn -0.9111 0.3059 -0.2762
vn 0.2408 0.1806 -0.9536
vn 0.2004 0.0145 0.9796
vn -0.2747 -0.6373 0.7200
vn 0.6167 -0.6383 0.4607
vn -0.5878 -0.0523 0.8073
vn -0.9850 0.0161 0.1720
vn -0.7564 -0.6439 -0.1154
vn -0.7966 -0.0314 -0.6036
vn 0.0685 0.0164 -0.9975
vn -0.1491 -0.6535 -0.7421
vn 0.5777 -0.6306 -0.5183
vn 0.8445 0.0078 -0.5355
vn 0.9277 -0.0473 0.3703
vn 0.6938 0.5839 -0.4215
vn 0.2349 0.8973 0.3737
vn -0.4169 0.6091 -0.6747
vn -0.6947 0.5844 0.4193
vn 0.5041 0.2539 0.8255
vn -0.2422 0.1813 0.9531
vn 0.8073 -0.0523 0.5878
vn 0.1720 0.0161 0.9850
vn -0.1541 -0.6430 0.7502
vn 0.7154 -0.6400 0.2805
vn -0.6016 -0.0506 0.7972
vn -0.9854 0.0155 0.1694
vn -0.7576 -0.6451 -0.0992
vn -0.8086 -0.0383 -0.5872
vn -0.1606 -0.0027 -0.9870
vn -0.1509 -0.6509 -0.7440
vn 0.9848 0.0067 -0.1733
vn 0.5426 -0.6308 -0.5547
vn -0.2925 0.9122 0.2868
vn 0.6772 0.6049 -0.4189
vn -0.3943 0.5977 -0.6980
vn 0.4477 0.5689 0.6898
vn 0.6588 -0.0622 0.7497
vn 0.1482 0.0183 0.9888
vn -0.1072 -0.6497 0.7526
vn 0.7501 -0.6404 0.1652
vn -0.5872 -0.0383 0.8085
vn -0.9909 0.0001 0.1345
vn -0.7463 -0.6512 0.1376
vn -0.7027 0.0103 -0.7114
vn 0.2174 -0.0416 -0.9752
vn -0.5348 -0.6288 -0.5645
vn 0.3749 -0.6387 -0.6719
vn 0.8570 0.0086 -0.5152
vn 0.6742 0.5745 -0.4642
vn 0.9694 0.0189 0.2447
vn 0.4778 0.2428 0.8442
vn 0.1305 0.9246 0.3579
vn -0.4166 0.6005 -0.6825
vn -0.7092 0.5645 0.4223
vn 0.9111 0.3059 0.2762
vn -0.2408 0.1806 0.9536
vn 0.5609 -0.6166 -0.5525
vn 0.7318 0.0079 -0.6815
vn 0.2312 0.1836 -0.9554
vn -0.9603 0.1414 -0.2407
vn -0.2398 0.1471 0.9596
vn 0.9596 0.1472 0.2398
vn -0.2401 0.1385 0.9608
vn 0.9487 0.1772 0.2620
vn 0.2473 0.1420 -0.9585
vn 0.5707 0.0054 -0.8211
vn -0.9593 0.1455 -0.2422
vn 0.2422 0.1457 -0.9592
vn 0.9592 0.1455 0.2423
vn -0.9336 0.2905 -0.2098
vn -0.8214 0.2435 0.5158
vn -0.2329 0.1789 0.9559
vn 0.2401 0.1385 -0.9608
vn -0.9596 0.1472 -0.2398
s 1
usemtl CandleWax.003
f 22//1 13//2 1//3
f 1//3 21//4 22//1
f 5//5 10//6 4//7
f 4//7 3//8 5//5
f 4//7 21//4 1//3
f 8//9 14//10 9//11
f 5//5 12//12 15//13
f 2//14 1//3 13//2 11//15
f 14//10 15//13 16//16
f 14//10 16//16 17//17
f 44//18 23//19 43//20
f 25//21 33//22 24//23
f 27//24 32//25 26//26
f 26//26 24//23 27//24
f 29//27 30//28 28//29
f 28//29 26//26 29//27
f 43//20 25//21 24//23
f 27//24 34//30 41//31
f 33//22 23//19 36//32
f 35//33 36//32 37//34
f 35//33 37//34 38//35
f 41//31 40//36 35//33
f 41//31 35//33 42//37
f 56//38 46//39 45//40
f 48//41 55//42 47//43
f 47//43 46//39 48//41
f 50//44 54//45 49//46
f 54//45 51//47 49//46
f 49//46 47//43 50//44
f 52//48 65//49 51//47
f 47//43 49//46 45//40
f 52//48 54//45 60//50
f 57//51 60//50 58//52
f 57//51 58//52 59//53
f 61//54 57//51 62//55
f 87//56 77//57 66//58
f 66//58 86//59 87//56
f 68//60 76//61 67//62
f 67//62 66//58 68//60
f 70//63 75//64 69//65
f 69//65 67//62 70//63
f 72//66 86//59 71//67
f 66//58 67//62 69//65
f 78//68 80//69 84//70
f 78//68 79//71 80//69
f 89//72 99//73 88//74
f 88//74 108//75 89//72
f 91//76 98//77 90//78
f 90//78 88//74 91//76
f 97//79 92//80 93//81
f 94//82 95//83 108//75
f 90//78 93//81 108//75
f 95//83 92//80 103//84
f 89//72 109//85 104//86
f 100//87 103//84 101//88
f 100//87 101//88 102//89
f 104//86 96//90 100//87
f 104//86 100//87 105//91
f 3//8 2//14 11//15 12//12
f 6//92 4//7 10//6 7//93
f 3//8 12//12 5//5
f 21//4 6//92 7//93 22//1
f 9//11 22//1 7//93 8//9
f 4//7 6//92 21//4
f 4//7 1//3 2//14
f 4//7 2//14 3//8
f 8//9 7//93 20//94
f 19//95 12//12 11//15 16//16
f 8//9 20//94 14//10
f 9//11 14//10 17//17
f 10//6 5//5 15//13
f 15//13 12//12 19//95
f 10//6 15//13 20//94
f 10//6 20//94 7//93
f 16//16 11//15 18//96
f 43//20 28//29 30//28 44//18
f 13//2 22//1 17//17
f 17//17 22//1 9//11
f 13//2 17//17 18//96
f 13//2 18//96 11//15
f 18//96 17//17 16//16
f 19//95 16//16 15//13
f 20//94 15//13 14//10
f 43//20 23//19 25//21
f 25//21 23//19 33//22
f 33//22 34//30 24//23
f 24//23 34//30 27//24
f 32//25 29//27 26//26
f 40//36 34//30 33//22 36//32
f 24//23 28//29 43//20
f 24//23 26//26 28//29
f 30//28 29//27 38//35
f 38//35 29//27 42//37
f 30//28 38//35 31//97
f 30//28 31//97 44//18
f 31//97 38//35 37//34
f 32//25 27//24 41//31
f 41//31 34//30 40//36
f 32//25 41//31 42//37
f 32//25 42//37 29//27
f 36//32 23//19 39//98
f 39//98 23//19 44//18 37//34
f 37//34 44//18 31//97
f 53//99 65//49 52//48 60//50
f 35//33 40//36 36//32
f 39//98 37//34 36//32
f 42//37 35//33 38//35
f 45//40 65//49 56//38
f 56//38 48//41 46//39
f 55//42 50//44 47//43
f 51//47 54//45 52//48
f 51//47 65//49 45//40
f 47//43 45//40 46//39
f 45//40 49//46 51//47
f 60//50 54//45 64//100
f 71//67 69//65 75//64 73//101
f 53//99 60//50 57//51
f 54//45 50//44 58//52
f 58//52 50//44 63//102
f 54//45 58//52 64//100
f 55//42 48//41 59//53
f 59//53 48//41 62//55
f 55//42 59//53 63//102
f 55//42 63//102 50//44
f 56//38 65//49 61//54
f 61//54 65//49 53//99
f 56//38 61//54 62//55
f 56//38 62//55 48//41
f 61//54 53//99 57//51
f 62//55 57//51 59//53
f 63//102 59//53 58//52
f 64//100 58//52 60//50
f 77//57 68//60 66//58
f 76//61 70//63 67//62
f 93//81 90//78 98//77 97//79
f 71//67 73//101 72//66
f 72//66 87//56 86//59
f 66//58 71//67 86//59
f 66//58 69//65 71//67
f 72//66 73//101 80//69
f 80//69 73//101 85//103
f 72//66 80//69 74//104
f 72//66 74//104 87//56
f 74//104 80//69 79//71
f 75//64 70//63 84//70
f 84//70 70//63 83//105
f 75//64 84//70 85//103
f 75//64 85//103 73//101
f 76//61 68//60 82//106
f 82//106 68//60 81//107
f 76//61 82//106 83//105
f 76//61 83//105 70//63
f 77//57 87//56 79//71
f 79//71 87//56 74//104
f 77//57 79//71 81//107
f 77//57 81//107 68//60
f 84//70 83//105 78//68
f 81//107 79//71 78//68
f 82//106 81//107 78//68
f 82//106 78//68 83//105
f 85//103 84//70 80//69
f 108//75 109//85 89//72
f 99//73 91//76 88//74
f 96//90 109//85 95//83 103//84
f 93//81 92//80 94//82
f 94//82 92//80 95//83
f 95//83 109//85 108//75
f 90//78 108//75 88//74
f 108//75 93//81 94//82
f 103//84 92//80 107//108
f 107//108 92//80 97//79 101//88
f 101//88 97//79 106//109
f 98//77 91//76 102//89
f 102//89 91//76 105//91
f 98//77 102//89 106//109
f 98//77 106//109 97//79
f 99//73 89//72 104//86
f 104//86 109//85 96//90
f 99//73 104//86 105//91
f 99//73 105//91 91//76
f 100//87 96//90 103//84
f 105//91 100//87 102//89
f 106//109 102//89 101//88
f 107//108 101//88 103//84
