# Blender 3.6.2
# www.blender.org
mtllib fuego.mtl
o Candlestick_CUSpiral.001
v -2.455716 3.392424 0.200710
v -2.470984 3.392474 0.250050
v -2.564365 3.392424 0.201251
v -2.458917 3.392429 0.190365
v -2.464098 3.392469 0.241694
v -2.565273 3.392420 0.212061
v -2.464081 3.392433 0.180812
v -2.458997 3.392469 0.232161
v -2.564013 3.392416 0.222862
v -2.471009 3.392436 0.172452
v -2.455886 3.392470 0.221796
v -2.560957 3.392412 0.233238
v -2.479434 3.392439 0.165603
v -2.555901 3.392408 0.242771
v -2.489035 3.392442 0.160530
v -2.549097 3.392430 0.250847
v -2.499439 3.392442 0.157427
v -2.540841 3.392461 0.257451
v -2.510249 3.392443 0.156573
v -2.531240 3.392458 0.262507
v -2.520892 3.392540 0.158221
v -2.520838 3.392458 0.265596
v -2.531426 3.392442 0.160888
v -2.510040 3.392461 0.266559
v -2.540978 3.392439 0.165892
v -2.499248 3.392463 0.265403
v -2.549340 3.392436 0.172820
v -2.488876 3.392465 0.262181
v -2.556189 3.392433 0.181245
v -2.454713 3.392443 0.211204
v -2.479346 3.392472 0.256977
v -2.561262 3.392429 0.190845
v -2.451903 3.649539 0.228737
v -2.437832 3.587052 0.209044
v -2.451711 3.622377 0.268194
v -2.548190 3.571349 0.207220
v -2.441032 3.587068 0.199214
v -2.444414 3.613974 0.258756
v -2.551774 3.577612 0.219109
v -2.446425 3.587398 0.190461
v -2.438878 3.598567 0.242252
v -2.552505 3.580604 0.230255
v -2.453893 3.587315 0.182947
v -2.550352 3.582777 0.239893
v -2.463690 3.583691 0.177864
v -2.545419 3.584772 0.247997
v -2.475230 3.577286 0.174443
v -2.537898 3.586659 0.254690
v -2.487166 3.570659 0.171656
v -2.528267 3.589014 0.260291
v -2.497925 3.565626 0.169564
v -2.517698 3.594719 0.265094
v -2.507406 3.561533 0.169620
v -2.506657 3.602331 0.269237
v -2.515808 3.558735 0.170955
v -2.495160 3.610514 0.272987
v -2.522899 3.557833 0.173763
v -2.483581 3.618255 0.275604
v -2.529192 3.558286 0.178426
v -2.472190 3.623838 0.276206
v -2.535588 3.560217 0.186322
v -2.436787 3.588233 0.220260
v -2.461343 3.625598 0.273956
v -2.542262 3.564541 0.196325
v -2.434411 3.471162 0.195852
v -2.451770 3.472544 0.273033
v -2.584880 3.468876 0.196559
v -2.439206 3.470882 0.180758
v -2.441338 3.471916 0.257565
v -2.588208 3.469359 0.212295
v -2.445681 3.470621 0.166889
v -2.436065 3.471782 0.241485
v -2.587874 3.470112 0.228015
v -2.453748 3.470417 0.155153
v -2.433889 3.471657 0.226852
v -2.583791 3.470463 0.243112
v -2.465443 3.470328 0.145863
v -2.576371 3.470643 0.256707
v -2.479398 3.470418 0.138690
v -2.566236 3.470851 0.267316
v -2.494468 3.470357 0.134266
v -2.553926 3.471086 0.275892
v -2.510189 3.470502 0.134033
v -2.539269 3.471344 0.284617
v -2.525906 3.471380 0.136063
v -2.523069 3.471587 0.290567
v -2.541021 3.470969 0.138876
v -2.506674 3.471759 0.292181
v -2.553041 3.469888 0.144857
v -2.492230 3.471849 0.290460
v -2.562244 3.469886 0.155054
v -2.479000 3.472366 0.287720
v -2.570335 3.469587 0.167444
v -2.433218 3.471447 0.211567
v -2.465732 3.472806 0.282773
v -2.578101 3.469007 0.181411
v -2.574468 3.423789 0.185102
v -2.476676 3.424815 0.259411
v -2.443172 3.424531 0.203999
v -2.568118 3.423795 0.172871
v -2.487603 3.424821 0.265924
v -2.559685 3.423799 0.162137
v -2.500563 3.424822 0.270200
v -2.549330 3.423802 0.155034
v -2.514518 3.424825 0.271993
v -2.537265 3.423805 0.151819
v -2.528673 3.424831 0.271037
v -2.542043 3.424834 0.267147
v -2.510284 3.423807 0.146320
v -2.554274 3.424837 0.260683
v -2.496527 3.423807 0.144224
v -2.563091 3.424549 0.254424
v -2.483278 3.423805 0.146481
v -2.568141 3.424026 0.248148
v -2.471047 3.423802 0.152944
v -2.571677 3.423767 0.238768
v -2.445498 3.424814 0.215247
v -2.460312 3.423799 0.161670
v -2.574476 3.423772 0.225876
v -2.449623 3.424811 0.228495
v -2.451610 3.423792 0.172325
v -2.576815 3.423778 0.212118
v -2.456723 3.424811 0.240551
v -2.445658 3.423769 0.184280
v -2.577442 3.423784 0.198354
v -2.466276 3.424809 0.250890
v -2.442815 3.424011 0.194754
v -2.559575 3.517154 0.177488
v -2.456152 3.570000 0.285784
v -2.428584 3.530272 0.193139
v -2.553098 3.532821 0.156920
v -2.469703 3.566575 0.286813
v -2.548743 3.553427 0.149239
v -2.485133 3.553719 0.283481
v -2.543862 3.568234 0.143002
v -2.501915 3.540048 0.279604
v -2.535445 3.573369 0.137474
v -2.519437 3.533682 0.275638
v -2.523783 3.570805 0.137448
v -2.536075 3.532611 0.270247
v -2.509695 3.559449 0.139715
v -2.551459 3.531927 0.265078
v -2.494010 3.543655 0.145151
v -2.565049 3.530857 0.259788
v -2.479359 3.535926 0.159291
v -2.576331 3.528826 0.252541
v -2.463927 3.534040 0.164385
v -2.584680 3.525868 0.242452
v -2.430712 3.532680 0.231411
v -2.449590 3.531594 0.167379
v -2.588104 3.521929 0.229283
v -2.432405 3.539755 0.250361
v -2.437737 3.530043 0.172602
v -2.582717 3.517147 0.213179
v -2.436691 3.551890 0.267119
v -2.430465 3.530056 0.181696
v -2.571256 3.514307 0.196059
v -2.445009 3.563771 0.279236
v -2.461297 3.649404 0.251301
v -2.523688 3.650879 0.222529
v -2.455080 3.650072 0.218378
v -2.456814 3.649222 0.247247
v -2.524780 3.650195 0.229102
v -2.458530 3.650516 0.212651
v -2.453640 3.649014 0.242311
v -2.524361 3.649299 0.235454
v -2.462949 3.650853 0.207510
v -2.451903 3.649021 0.236682
v -2.520895 3.647826 0.243950
v -2.468249 3.651113 0.203157
v -2.474229 3.651320 0.199781
v -2.511643 3.646518 0.251799
v -2.480668 3.651495 0.197511
v -2.487369 3.651647 0.196454
v -2.501739 3.645938 0.255826
v -2.497773 3.651348 0.197142
v -2.494681 3.646305 0.257279
v -2.487450 3.647127 0.257850
v -2.506998 3.651906 0.201095
v -2.476520 3.648333 0.257430
v -2.515517 3.651589 0.207716
v -2.466878 3.649347 0.254376
v -2.521188 3.651368 0.216116
v -2.475575 3.678347 0.212813
v -2.477703 3.676801 0.224899
v -2.513937 3.679139 0.211481
v -2.515084 3.678326 0.218661
v -2.479112 3.679067 0.206333
v -2.474831 3.677372 0.219315
v -2.513094 3.677248 0.224822
v -2.484978 3.679500 0.201266
v -2.508753 3.676354 0.228776
v -2.492287 3.679699 0.198656
v -2.501698 3.676473 0.230266
v -2.499948 3.679842 0.199065
v -2.505300 3.679660 0.201326
v -2.509802 3.679584 0.204878
v -2.502388 3.691182 0.211380
v -2.492321 3.691616 0.207285
v -2.495931 3.694930 0.209480
v -2.499759 3.690877 0.215156
v -2.496384 3.691793 0.205322
v -2.494678 3.691368 0.215008
v -2.500699 3.691599 0.207067
vn -0.4533 0.2506 0.8554
vn -0.4443 0.4421 0.7792
vn -0.5490 0.3012 0.7797
vn -0.0869 0.4102 0.9079
vn -0.0137 0.6426 0.7661
vn -0.2782 0.3272 0.9031
vn 0.9920 0.0465 -0.1170
vn 0.9525 0.2409 -0.1865
vn 0.9813 0.1890 -0.0362
vn -0.8239 0.4544 -0.3386
vn -0.7169 0.2071 -0.6657
vn -0.7770 0.5935 -0.2096
vn -0.7210 0.3786 0.5803
vn -0.7103 0.4389 0.5503
vn -0.8466 0.4339 0.3082
vn 0.9771 0.1924 0.0905
vn 0.8608 0.4798 0.1698
vn 0.8098 0.5177 0.2761
vn -0.0982 -0.3281 -0.9395
vn -0.1856 -0.2994 -0.9359
vn -0.1214 -0.2817 -0.9518
vn 0.0311 0.1943 -0.9804
vn 0.1334 0.3145 -0.9398
vn 0.1963 0.2262 -0.9541
vn -0.2035 0.5552 0.8064
vn -0.1011 0.6882 0.7185
vn 0.3134 0.2673 -0.9112
vn 0.4595 0.4144 -0.7856
vn 0.4642 0.3240 -0.8244
vn 0.6306 0.3618 -0.6866
vn 0.6695 0.5357 -0.5146
vn 0.7626 0.3955 -0.5119
vn 0.8763 0.2894 -0.3851
vn 0.9122 0.0807 -0.4016
vn 0.4609 0.7647 0.4503
vn 0.7331 0.5785 0.3577
vn 0.8907 0.4449 -0.0936
vn 0.6598 0.7326 0.1675
vn 0.8457 0.4158 -0.3345
vn 0.7345 0.6556 -0.1756
vn -0.0001 0.6703 -0.7421
vn 0.5225 0.7296 -0.4412
vn 0.0676 0.9962 -0.0551
vn -0.8493 0.4360 -0.2976
vn -0.5889 0.8029 0.0926
vn -0.5047 0.7162 -0.4820
vn -0.6006 0.6328 0.4887
vn -0.2633 0.8043 0.5327
vn 0.1814 0.8072 0.5617
vn -0.2309 0.2792 -0.9320
vn 0.2538 0.3153 -0.9144
vn 0.3148 0.4062 -0.8579
vn 0.2107 0.6281 -0.7491
vn 0.6982 0.3850 0.6035
vn 0.3253 0.4521 0.8305
vn 0.3682 0.1073 0.9235
vn 0.7198 0.0610 0.6914
vn 0.5352 0.6513 0.5378
vn 0.9113 0.2715 0.3095
vn -0.3312 0.2685 0.9046
vn -0.2260 0.1492 0.9626
vn -0.1778 0.1004 0.9789
vn -0.9052 0.2627 0.3340
vn -0.7452 0.2534 0.6168
vn -0.7883 0.3814 -0.4829
vn -0.8194 0.3243 -0.4727
vn -0.8923 0.2766 -0.3568
vn -0.8563 0.4098 -0.3145
vn -0.0021 0.8469 -0.5317
vn -0.2537 0.9147 -0.3146
vn -0.2282 0.1900 -0.9549
vn 0.9834 0.0119 0.1808
vn 0.9971 0.0187 0.0740
vn -0.9322 0.3518 -0.0855
vn -0.8952 0.4455 -0.0159
vn -0.8919 0.4063 0.1984
vn -0.5565 0.2307 0.7982
vn 0.2781 0.6862 0.6722
vn -0.8398 0.2400 -0.4870
vn -0.7869 0.3960 -0.4733
vn -0.9018 0.2979 -0.3132
vn -0.3003 0.8065 -0.5093
vn -0.6476 0.7165 -0.2594
vn -0.5398 0.8159 -0.2072
vn 0.9146 0.0211 0.4037
vn 0.7157 0.3222 -0.6196
vn 0.7342 0.1296 -0.6665
vn 0.0392 0.8115 -0.5830
vn -0.3244 0.4597 0.8267
vn -0.4017 0.2296 0.8865
vn -0.3649 0.2358 0.9007
vn -0.2814 0.4981 0.8202
vn 0.4333 0.2786 -0.8571
vn 0.4207 0.3233 -0.8476
vn -0.2984 0.1932 0.9347
vn 0.2950 0.3085 -0.9043
vn 0.5008 0.3258 -0.8019
vn 0.4931 0.2028 -0.8460
vn 0.3396 0.2528 -0.9060
vn -0.8672 0.3609 -0.3432
vn 0.0817 -0.2996 -0.9506
vn 0.3306 -0.3083 -0.8920
vn 0.3132 -0.4269 -0.8483
vn 0.0766 -0.3838 -0.9202
vn 0.2704 0.5601 -0.7831
vn -0.0012 0.0918 0.9958
vn -0.4345 0.2127 0.8752
vn -0.9657 0.2579 -0.0309
vn -0.8756 0.4514 -0.1722
vn -0.9088 0.3397 -0.2424
vn -0.3776 0.2072 0.9025
vn -0.4979 0.1800 -0.8483
vn -0.8911 -0.2661 -0.3677
vn -0.8128 -0.2679 -0.5172
vn -0.7599 -0.4219 -0.4946
vn -0.8507 -0.4124 -0.3259
vn 0.5209 -0.3129 -0.7942
vn 0.4964 -0.4358 -0.7508
vn 0.9470 -0.2824 -0.1532
vn 0.9124 -0.3884 -0.1294
vn 0.8436 -0.4209 -0.3334
vn 0.8913 -0.2907 -0.3480
vn -0.6933 -0.2853 -0.6618
vn -0.6319 -0.4210 -0.6508
vn -0.6490 -0.2996 0.6993
vn -0.7968 -0.3116 0.5177
vn -0.7782 -0.3778 0.5016
vn -0.6313 -0.3466 0.6938
vn 0.5220 -0.2980 0.7992
vn 0.5636 -0.1121 0.8184
vn 0.6871 -0.1232 0.7160
vn 0.6677 -0.3014 0.6806
vn 0.6773 -0.3119 -0.6663
vn 0.6348 -0.4353 -0.6384
vn 0.9011 -0.2810 0.3301
vn 0.8925 -0.2100 0.3992
vn 0.9376 -0.2604 0.2305
vn 0.9453 -0.2701 0.1832
vn 0.8072 -0.3008 -0.5078
vn 0.7533 -0.4316 -0.4963
vn 0.9612 -0.2722 0.0457
vn 0.9435 -0.3219 0.0792
vn 0.7988 -0.1592 0.5802
vn 0.8037 -0.2951 0.5166
vn -0.5861 -0.0899 -0.8052
vn -0.2870 -0.1240 -0.9499
vn -0.2549 -0.2932 -0.9214
vn -0.4793 -0.3030 -0.8237
vn -0.0730 -0.1121 0.9910
vn 0.0116 -0.2838 0.9588
vn 0.1929 -0.2836 0.9393
vn 0.0494 -0.1712 0.9840
vn 0.9778 -0.1432 -0.1528
vn 0.9886 -0.1483 0.0267
vn 0.8429 -0.2630 0.4695
vn 0.6562 -0.2818 0.7000
vn 0.4238 -0.2641 0.8664
vn 0.2054 -0.2232 0.9529
vn 0.3629 -0.2900 0.8856
vn 0.9413 -0.2142 0.2610
vn -0.9870 -0.0584 -0.1495
vn -0.9556 -0.2928 0.0331
vn -0.9371 -0.3024 0.1742
vn -0.9871 -0.1222 0.1032
vn 0.9766 -0.1711 0.1303
vn 0.9192 -0.1325 -0.3709
vn -0.8948 -0.3106 0.3208
vn -0.9184 -0.1293 0.3739
vn 0.4213 0.0150 -0.9068
vn 0.4851 0.0220 -0.8742
vn -0.6053 -0.0679 0.7931
vn -0.5176 -0.2841 0.8070
vn -0.4878 -0.0484 0.8716
vn -0.3851 -0.0453 0.9217
vn -0.3864 -0.2784 0.8793
vn -0.1946 -0.2823 0.9394
vn -0.2283 -0.0681 0.9712
vn -0.0023 -0.0943 -0.9955
vn 0.2448 -0.0388 -0.9688
vn -0.1085 -0.1230 -0.9865
vn -0.9459 -0.2787 -0.1659
vn -0.9145 -0.3866 -0.1192
vn -0.9343 -0.3508 0.0633
vn 0.2153 -0.1348 0.9672
vn 0.4014 -0.1190 0.9081
vn -0.7818 -0.0976 0.6158
vn 0.8031 -0.0933 -0.5885
vn 0.6325 -0.0276 -0.7741
vn -0.9166 0.0749 -0.3928
vn -0.8992 0.0534 -0.4342
vn -0.8050 -0.0204 -0.5930
vn -0.9453 0.0257 -0.3251
vn -0.9237 -0.3370 0.1824
vn -0.4414 -0.3860 -0.8100
vn -0.2801 -0.3311 -0.9011
vn -0.8814 -0.3579 0.3082
vn -0.4993 -0.2930 0.8154
vn -0.3504 -0.2458 0.9038
vn -0.1635 -0.2001 0.9660
vn 0.0292 -0.1613 0.9865
vn -0.7059 0.3345 -0.6244
vn -0.4921 0.2827 -0.8233
vn -0.8226 0.5553 0.1221
vn -0.3314 0.6587 0.6754
s 1
usemtl None.001
f 50//1 172//2 48//3
f 60//4 180//5 58//6
f 130//7 34//8 62//9
f 61//10 181//11 59//12
f 46//13 169//14 44//15
f 41//16 168//17 165//18
f 19//19 21//20 109//21
f 174//22 193//23 173//24
f 178//25 180//5 194//26
f 171//27 191//28 170//29
f 167//30 188//31 164//32
f 37//33 34//8 130//7 156//34
f 165//18 185//35 162//36
f 33//37 189//38 168//17
f 161//39 184//40 33//37
f 193//23 202//41 191//28
f 188//31 199//42 184//40
f 184//40 200//43 189//38
f 186//44 198//45 204//46
f 191//28 199//42 188//31
f 190//47 201//48 198//45
f 194//26 203//49 201//48
f 195//50 202//41 193//23
f 189//38 200//43 185//35
f 204//46 198//45 200//43
f 198//45 201//48 200//43
f 201//48 203//49 200//43
f 202//41 204//46 200//43
f 199//42 202//41 200//43
f 173//24 171//27 47//51 49//52
f 174//22 173//24 49//52 51//53
f 35//54 63//55 129//56 158//57
f 162//36 159//58 35//54 38//59
f 56//60 136//61 134//62 58//6
f 169//14 46//13 48//3 172//2
f 44//15 148//63 146//64 46//13
f 36//65 157//66 154//67 39//68
f 53//69 55//70 176//71
f 152//72 149//73 41//16
f 163//74 39//68 42//75 166//76
f 46//13 146//64 144//77 48//3
f 180//5 60//4 63//55 182//78
f 183//79 64//80 36//65 160//81
f 55//70 137//82 135//83 57//84
f 41//16 38//59 155//85 152//72
f 166//76 42//75 44//15 169//14
f 40//86 37//33 156//34 153//87
f 55//70 53//69 139//88 137//82
f 175//89 52//90 54//91 177//92
f 49//52 47//51 145//93 143//94
f 178//25 56//60 58//6 180//5
f 164//32 161//39 37//33 40//86
f 54//91 138//95 136//61 56//60
f 172//2 50//1 52//90 175//89
f 45//96 43//97 150//98 147//99
f 64//80 128//100 157//66 36//65
f 176//71 174//22 51//53 53//69
f 111//101 113//102 15//103 17//104
f 53//69 51//53 141//105 139//88
f 58//6 134//62 132//106 60//4
f 33//37 168//17 41//16 62//9
f 60//4 132//106 129//56 63//55
f 167//30 164//32 40//86 43//97
f 51//53 49//52 143//94 141//105
f 48//3 144//77 142//107 50//1
f 62//9 34//8 33//37
f 181//11 61//10 64//80 183//79
f 42//75 151//108 148//63 44//15
f 177//92 54//91 56//60 178//25
f 39//68 154//67 151//108 42//75
f 43//97 40//86 153//87 150//98
f 161//39 33//37 34//8 37//33
f 171//27 170//29 45//96 47//51
f 57//84 135//83 133//109 59//12
f 165//18 162//36 38//59 41//16
f 61//10 131//110 128//100 64//80
f 160//81 36//65 39//68 163//74
f 59//12 133//109 131//110 61//10
f 50//1 142//107 140//111 52//90
f 170//29 167//30 43//97 45//96
f 52//90 140//111 138//95 54//91
f 47//51 45//96 147//99 145//93
f 159//58 182//78 63//55 35//54
f 179//112 57//84 59//12 181//11
f 62//9 41//16 149//73 130//7
f 38//59 35//54 158//57 155//85
f 179//112 176//71 55//70 57//84
f 97//113 100//114 29//115 32//116
f 113//102 115//117 13//118 15//103
f 127//119 1//120 4//121 124//122
f 100//114 102//123 27//124 29//115
f 112//125 114//126 14//127 16//128
f 98//129 31//130 2//131 126//132
f 115//117 118//133 10//134 13//118
f 120//135 8//136 11//137 117//138
f 121//139 7//140 10//134 118//133
f 99//141 30//142 1//120 127//119
f 126//132 2//131 5//143 123//144
f 89//145 87//146 106//147 104//148
f 88//149 105//150 103//151 90//152
f 65//153 94//154 99//141 127//119
f 69//155 66//156 126//132 123//144
f 95//157 92//158 101//159 98//129
f 72//160 69//155 123//144 120//135
f 70//161 122//162 119//163 73//164
f 75//165 72//160 120//135 117//138
f 68//166 65//153 127//119 124//122
f 94//154 75//165 117//138 99//141
f 73//164 119//163 116//167 76//168
f 79//169 77//170 115//117 113//102
f 80//171 112//125 110//172 82//173
f 84//174 108//175 107//176 86//177
f 83//178 81//179 111//101 109//21
f 87//146 85//180 21//20 106//147
f 109//21 111//101 17//104 19//19
f 122//162 125//181 3//182 6//183
f 125//181 97//113 32//116 3//182
f 101//159 103//151 26//184 28//185
f 82//173 110//172 108//175 84//174
f 78//186 114//126 112//125 80//171
f 85//180 83//178 109//21 21//20
f 81//179 79//169 113//102 111//101
f 76//168 116//167 114//126 78//186
f 71//187 121//139 118//133 74//188
f 77//170 74//188 118//133 115//117
f 96//189 93//190 100//114 97//113
f 91//191 89//145 104//148 102//123
f 93//190 91//191 102//123 100//114
f 68//166 124//122 121//139 71//187
f 67//192 125//181 122//162 70//161
f 90//152 103//151 101//159 92//158
f 67//192 96//189 97//113 125//181
f 66//156 95//157 98//129 126//132
f 86//177 107//176 105//150 88//149
f 123//144 5//143 8//136 120//135
f 124//122 4//121 7//140 121//139
f 119//163 122//162 6//183 9//193
f 104//148 25//194 27//124 102//123
f 23//195 106//147 21//20
f 119//163 9//193 12//196 116//167
f 116//167 12//196 14//127 114//126
f 117//138 11//137 30//142 99//141
f 110//172 112//125 16//128 18//197
f 108//175 110//172 18//197 20//198
f 107//176 108//175 20//198 22//199
f 105//150 107//176 22//199 24//200
f 106//147 23//195 25//194 104//148
f 103//151 105//150 24//200 26//184
f 101//159 28//185 31//130 98//129
f 145//93 147//99 77//170 79//169
f 133//109 135//83 89//145 91//191
f 156//34 130//7 65//153 68//166
f 144//77 80//171 82//173 142//107
f 143//94 81//179 83//178 141//105
f 155//85 158//57 66//156 69//155
f 147//99 150//98 74//188 77//170
f 153//87 156//34 68//166 71//187
f 139//88 85//180 87//146 137//82
f 131//110 133//109 91//191 93//190
f 130//7 149//73 75//165 94//154
f 152//72 155//85 69//155 72//160
f 158//57 129//56 95//157 66//156
f 154//67 70//161 73//164 151//108
f 128//100 131//110 93//190 96//189
f 135//83 137//82 87//146 89//145
f 136//61 88//149 90//152 134//62
f 141//105 83//178 85//180 139//88
f 157//66 128//100 96//189 67//192
f 150//98 153//87 71//187 74//188
f 140//111 142//107 82//173 84//174
f 146//64 78//186 80//171 144//77
f 157//66 67//192 70//161 154//67
f 148//63 76//168 78//186 146//64
f 94//154 65//153 130//7
f 140//111 84//174 86//177 138//95
f 151//108 73//164 76//168 148//63
f 132//106 92//158 95//157 129//56
f 145//93 79//169 81//179 143//94
f 134//62 90//152 92//158 132//106
f 149//73 152//72 72//160 75//165
f 138//95 86//177 88//149 136//61
f 193//23 174//22 176//71 195//50
f 184//40 161//39 164//32 188//31
f 185//35 203//49 182//78 159//58
f 159//58 162//36 185//35
f 197//201 196//202 179//112 181//11
f 163//74 166//76 187//203
f 191//28 171//27 173//24 193//23
f 33//37 184//40 189//38
f 185//35 165//18 168//17 189//38
f 187//203 186//44 160//81 163//74
f 183//79 160//81 186//44
f 186//44 197//201 181//11 183//79
f 180//5 182//78 203//49
f 190//47 187//203 166//76 169//14
f 177//92 178//25 194//26
f 175//89 177//92 194//26
f 194//26 192//204 172//2 175//89
f 188//31 167//30 170//29 191//28
f 192//204 190//47 169//14 172//2
f 196//202 195//50 176//71 179//112
f 204//46 202//41 195//50 196//202
f 192//204 194//26 201//48
f 186//44 187//203 198//45
f 185//35 200//43 203//49
f 196//202 197//201 204//46
f 197//201 186//44 204//46
f 187//203 190//47 198//45
f 184//40 199//42 200//43
f 194//26 180//5 203//49
f 190//47 192//204 201//48
f 191//28 202//41 199//42
